<svg xmlns="http://www.w3.org/2000/svg" xmlns:xlink="http://www.w3.org/1999/xlink" version="1.1" x="0px" y="0px" viewBox="0 0 764.76 640.34" style="enable-background:new 0 0 764.76 640.34;" xml:space="preserve">
<style type="text/css">
	.st0{fill-rule:evenodd;clip-rule:evenodd;fill:#D4632B;}
	.st1{fill-rule:evenodd;clip-rule:evenodd;fill:#031F53;}
	.st2{fill:#031F53;}
	.st3{fill:#ff531a;}
	.st4{fill:#FFFFFF;}
</style>
<g id="lettering">
	<g>
		<g>
			<path class="st3" d="M90.86,326.46l-1.66,6.19h-6.9l-8.39,31.31h-8.43l8.39-31.31h-6.84l1.66-6.19H90.86z"/>
			<path class="st3" d="M132.76,357.76h12.03l-1.66,6.19h-20.46l10.05-37.5h19.99l-1.66,6.19h-11.56l-2.45,9.14h9.85l-1.66,6.19     h-9.85L132.76,357.76z"/>
			<path class="st3" d="M211.43,326.46h7.72l-10.05,37.5h-7.55l-2.18-22.46l-6.02,22.46h-7.66l10.05-37.5h7.61l2.08,22.4     L211.43,326.46z"/>
			<path class="st3" d="M279,326.46h7.72l-10.05,37.5h-7.55l-2.18-22.46l-6.02,22.46h-7.66l10.05-37.5h7.61l2.08,22.4L279,326.46z"/>
			<path class="st3" d="M331.06,326.46h8.37l-10.05,37.5h-8.37L331.06,326.46z"/>
			<path class="st3" d="M388.87,356.29l1.82-6.78c0.14-0.51,0.12-0.87-0.06-1.09c-0.18-0.22-0.56-0.32-1.15-0.32h-5.19     c-4.64,0-6.37-2.2-5.19-6.6l2.29-8.55c1.16-4.32,4.21-6.49,9.17-6.49h7.19c4.95,0,6.85,2.16,5.69,6.49l-1.31,4.89h-8.43l1-3.71     c0.26-0.98-0.14-1.47-1.2-1.47h-2c-1.06,0-1.72,0.49-1.99,1.47l-1.77,6.6c-0.14,0.51-0.12,0.88,0.06,1.09     c0.18,0.22,0.56,0.32,1.15,0.32h5.07c2.51,0,4.18,0.54,4.99,1.62c0.81,1.08,0.93,2.68,0.36,4.81l-2.37,8.84     c-1.17,4.36-4.23,6.54-9.18,6.54h-7.13c-4.99,0-6.9-2.18-5.73-6.54l1.3-4.83h8.43l-1,3.71c-0.26,0.98,0.14,1.47,1.2,1.47h2     C387.94,357.76,388.6,357.27,388.87,356.29z"/>
			<path class="st3" d="M516.91,339.6h-8.49l1.58-5.9c0.26-0.98-0.12-1.47-1.14-1.47h-2.42c-1.06,0-1.72,0.49-1.99,1.47l-6.16,22.99     c-0.15,0.55-0.13,0.93,0.05,1.15c0.18,0.22,0.56,0.32,1.15,0.32h2.42c0.55,0,0.97-0.11,1.27-0.32c0.29-0.22,0.51-0.6,0.66-1.15     l1.53-5.72h8.49l-1.74,6.49c-1.16,4.32-4.23,6.49-9.23,6.49h-7.55c-4.95,0-6.85-2.16-5.69-6.49l6.57-24.53     c1.16-4.32,4.21-6.49,9.17-6.49h7.55c4.99,0,6.91,2.16,5.75,6.49L516.91,339.6z"/>
			<path class="st3" d="M563.7,357.76h10.79l-1.66,6.19h-19.16l10.05-37.5h8.37L563.7,357.76z"/>
			<path class="st3" d="M638.83,326.46h8.43l-8.29,30.95c-1.17,4.36-4.25,6.54-9.24,6.54h-7.9c-4.95,0-6.84-2.18-5.68-6.54     l8.29-30.95h8.43l-7.99,29.83c-0.26,0.98,0.12,1.47,1.14,1.47h2.83c1.06,0,1.72-0.49,1.99-1.47L638.83,326.46z"/>
			<path class="st3" d="M691.42,326.46h15.57c4.99,0,6.91,2.16,5.75,6.49l-1.77,6.6c-0.78,2.91-2.15,4.74-4.12,5.48     c1.59,0.67,2.02,2.36,1.29,5.07l-1.96,7.31c-1.17,4.36-4.25,6.54-9.24,6.54h-15.57L691.42,326.46z M698.06,356.7l1.96-7.31     c0.14-0.51,0.12-0.87-0.06-1.09c-0.18-0.22-0.56-0.32-1.15-0.32h-4.83l-2.73,10.2h4.83C697.13,358.18,697.79,357.69,698.06,356.7     z M702.34,340.73l1.88-7.02c0.26-0.98-0.14-1.47-1.2-1.47h-4.83l-2.67,9.96h4.84C701.41,342.2,702.07,341.71,702.34,340.73z"/>
			<g>
				<g>
					<path class="st4" d="M137.88,217.96h18.22l-37.64,81.6H96.52l5.19-53.38L78.3,299.57H56.36l6.08-81.6h18.99l-8.63,60.95       l27.11-60.95h18.6l-5.55,60.95L137.88,217.96z"/>
					<path class="st4" d="M178.51,299.57l1.13-14.76h-18.6l-6.78,14.76h-18.09l40.34-81.6h23.35l-2.87,81.6H178.51z M167.18,271.47       h13.34l2.57-34.51L167.18,271.47z"/>
					<path class="st4" d="M229.67,269.03l-8.18,30.54h-18.22l21.86-81.6h33.62c10.78,0,14.91,4.71,12.38,14.11l-6.12,22.84       c-2.02,7.53-6.65,12.06-13.91,13.6l6.05,31.05h-19.63l-4.65-30.54H229.67z M239.74,231.44l-6.6,24.64h9.88       c1.2,0,2.12-0.23,2.76-0.71c0.64-0.47,1.11-1.26,1.41-2.37l4.92-18.35c0.57-2.14-0.25-3.21-2.48-3.21H239.74z"/>
					<path class="st4" d="M289.85,269.03l-8.18,30.54h-18.22l21.86-81.6h33.62c10.78,0,14.91,4.71,12.38,14.11l-6.12,22.84       c-2.02,7.53-6.65,12.06-13.91,13.6l6.05,31.05H297.7l-4.65-30.54H289.85z M299.92,231.44l-6.6,24.64h9.88       c1.2,0,2.12-0.23,2.76-0.71c0.64-0.47,1.11-1.26,1.41-2.37l4.92-18.35c0.57-2.14-0.25-3.21-2.48-3.21H299.92z"/>
					<path class="st4" d="M345.87,217.96h18.22l-21.86,81.6h-18.22L345.87,217.96z"/>
					<path class="st4" d="M391.8,217.96H409c10.78,0,14.91,4.71,12.39,14.11l-14.26,53.25c-2.54,9.49-9.2,14.24-19.98,14.24h-17.19       c-10.86,0-15.02-4.75-12.48-14.24l14.26-53.25C374.25,222.67,380.94,217.96,391.8,217.96z M389.42,282.89l12.92-48.24       c0.57-2.14-0.25-3.21-2.48-3.21h-6.16c-2.31,0-3.75,1.07-4.32,3.21l-12.92,48.24c-0.57,2.14,0.3,3.21,2.6,3.21h6.16       C387.45,286.1,388.85,285.03,389.42,282.89z"/>
					<path class="st4" d="M440.74,269.03l-8.18,30.54h-18.22l21.86-81.6h33.62c10.78,0,14.91,4.71,12.39,14.11l-6.12,22.84       c-2.02,7.53-6.65,12.06-13.91,13.6l6.05,31.05h-19.63l-4.65-30.54H440.74z M450.81,231.44l-6.6,24.64h9.88       c1.2,0,2.12-0.23,2.76-0.71c0.64-0.47,1.11-1.26,1.4-2.37l4.92-18.35c0.57-2.14-0.25-3.21-2.48-3.21H450.81z"/>
					<path class="st4" d="M530.89,217.96h18.09l-21.86,81.6h-18.09l9.01-33.62h-16.42l-9.01,33.62h-18.09l21.86-81.6h18.09       l-9.25,34.52h16.42L530.89,217.96z"/>
					<path class="st4" d="M576.31,217.96h17.19c10.78,0,14.91,4.71,12.39,14.11l-14.26,53.25c-2.54,9.49-9.2,14.24-19.98,14.24       h-17.19c-10.86,0-15.02-4.75-12.48-14.24l14.26-53.25C558.75,222.67,565.44,217.96,576.31,217.96z M573.93,282.89l12.92-48.24       c0.57-2.14-0.25-3.21-2.48-3.21h-6.16c-2.31,0-3.75,1.07-4.32,3.21l-12.92,48.24c-0.57,2.14,0.3,3.21,2.6,3.21h6.16       C571.96,286.1,573.35,285.03,573.93,282.89z"/>
					<path class="st4" d="M636.48,217.96h17.19c10.78,0,14.91,4.71,12.39,14.11l-14.26,53.25c-2.54,9.49-9.2,14.24-19.98,14.24       h-17.19c-10.86,0-15.02-4.75-12.48-14.24l14.26-53.25C618.93,222.67,625.62,217.96,636.48,217.96z M634.1,282.89l12.92-48.24       c0.57-2.14-0.25-3.21-2.48-3.21h-6.16c-2.31,0-3.75,1.07-4.32,3.21l-12.92,48.24c-0.57,2.14,0.3,3.21,2.6,3.21h6.16       C632.13,286.1,633.53,285.03,634.1,282.89z"/>
					<path class="st4" d="M681.78,217.96h34c10.86,0,15.03,4.71,12.51,14.11l-14.26,53.25c-2.54,9.49-9.25,14.24-20.11,14.24h-34       L681.78,217.96z M696.09,283.79l13.41-50.04c0.57-2.14-0.29-3.21-2.6-3.21h-10.14l-15.12,56.46h10.14       C694.08,286.99,695.52,285.92,696.09,283.79z"/>
				</g>
			</g>
		</g>
	</g>
</g>
</svg>