<svg xmlns="http://www.w3.org/2000/svg" xmlns:xlink="http://www.w3.org/1999/xlink" version="1.1" id="Layer_1" x="0px" y="0px" viewBox="0 0 792 612" style="enable-background:new 0 0 792 612;" xml:space="preserve">
<style type="text/css">
	.st0{fill-rule:evenodd;clip-rule:evenodd;fill:#D4632B;}
	.st1{display:none;fill-rule:evenodd;clip-rule:evenodd;fill:#D4632B;}
	.st2{fill-rule:evenodd;clip-rule:evenodd;fill:#031F53;}
	.st3{fill:#031F53;}
	.st4{fill:#D4632B;}
	.st5{fill:#FFFFFF;}
</style>
<g>
	<g>
		<path class="st2" d="M447.98,249.2c-4.29,4.19-9.92,5.29-9.92,5.29s4.53-2.92,7.6-6.9c0,0,1.51-1.91,3.55-4.81    c0,0,7.7-10.57,8.1-16.62c0.4-6.05-2.82-17.94-2.82-17.94s4.64,14.41,5.65,19.45C461.15,232.71,447.98,249.2,447.98,249.2z     M436.54,196.53l8.47,7.74c-7.7-3.47-16.25-7.33-20.04-15.05C427.7,191.8,431.92,194.87,436.54,196.53z M328.1,123.73l2.02,4.29    l-5.97,4.81l5.02-2.83l1.94,0.14l3.32,7.04l-5.97,4.81l5.02-2.83l0.57-0.4l1.15,0.05l0,0l3.96,8.4l-5.97,4.81l5.02-2.83l0.57-0.4    l1.31,0.41l0,0l3.21,6.8l0,0l-5.97,4.81l5.02-2.83l0.59-0.41l1.17,0.15l1.93,4.08c-2.61,4.84-5.3,10.05-8.33,15.67l-1.16-2.46    l0.63-2.35l-1.71,0.06l-4.29-9.11l0.44-1.92l-1.46-0.23l-3.17-6.72l0.73-1.87l-1.89-0.57l-3.72-7.88l0.36-1.72l-1.26-0.2    l-3.09-6.54l0.58-1.21l-1.31-0.36l-2.17-4.62c-0.14-0.3-0.56-1.35,0.39-1.87c0.95-0.52,5.45-2.86,7.43-3.86    C325.05,123.08,327.56,122.84,328.1,123.73z M463.19,129.79l-2.02,4.29l-7.51-1.54l5.38,2.08l1.13,1.59l0,0l-3.32,7.04l-7.51-1.54    l5.38,2.07l0.67,0.19l0.69,0.92l0,0l-3.96,8.4l-7.51-1.54l5.38,2.07l0.67,0.19l0.52,1.27l0,0l-3.21,6.8l0,0l-7.51-1.54l5.38,2.08    l0.69,0.19l0.63,0.99l-0.96,2.04l-3.25,6.9l-1.71-0.06l0.63,2.35l-1.16,2.46l-4.16-7.83l0,0l-4.16-7.84h0l2-4.25l1.77-0.88    l-0.75-1.27l3.17-6.72l1.91-0.63l-0.76-1.82l3.72-7.88l1.56-0.82l-0.65-1.1l3.08-6.54l1.3-0.32l-0.56-1.24l2.18-4.62    c0.14-0.3,0.69-1.29,1.69-0.89c1,0.41,5.67,2.38,7.7,3.28C461.76,127.03,463.53,128.81,463.19,129.79z M368.31,211.31    L368.31,211.31c-7.85,3.85-15.57,7.91-22.35,12.87l0,0c-1.28,0.93-2.52,1.9-3.73,2.9c-0.94,0.69-1.67,1.32-2.16,1.86    c-3.7,4.07-1.97,10.32-0.07,14.57v0c0,0-4.15-5.3-3.85-10.64c0.3-5.34,10.58-12.4,13.31-14.42c2.72-2.02,21.87-14.72,21.87-14.72    s-3.83-0.5-6.86,1.11c-3.02,1.61-5.44,1.51-5.44,1.51s3.33-1.51,5.65-3.33c2.32-1.81,13.51-3.63,16.43-5.24    c2.92-1.61,8.11-4.13,8.11-4.13s3.28,1.87,6.48,3.84c1.31,0.82,5,2.16,8.34,3.28c4.85,4.55,33.17,21.63,33.17,21.63l-20.89-17.01    L399,191.34c-3.08-3.31-7.82-7.62-9.79-7.77c-2.67-0.2-4.48,1.51-4.48,1.51s1.71-3.23,4.48-3.23c2.77,0,3.58,0.81,3.58,0.81    s-1.11-1.64-1.81-2.17c-0.71-0.53-1.76-0.88-1.76-0.88v-30.62l-3.55-1.11c0,0,2.25-1.68,5.12-1.81c0.62,0.03,1.27,0.06,1.96,0.09    c1.63,0.17,3.57,0.54,5.07,0.85c4.99,1.31,9.34,3.62,9.34,3.62s-1.41-2.72-6.75-6.75c-5.34-4.03-11.18-4.94-11.18-4.94    s-3.34,0.5-7.07,2.12c-3.73,1.61-11.79,6.55-11.79,6.55s4.13-5.44,8.57-8.87c4.43-3.43,10.29-4.13,10.29-4.13s1.91-0.2,6.85,1.31    c4.92,1.51,16.77,8.52,16.86,8.57c-8.13-11.04-23.71-18.8-23.71-18.8c-27.87,13.77-33.88,31.82-49.22,59.78    c-5.82,7.76-6.01,8.88-5.62,12.25c7.08,0.29,14.47-4.67,18.55-8.52c-4.35,8.86-14.98,12.64-23.39,16.58l-3.33,2.41    c0,0-3.23,11.9-2.82,17.94c0.4,6.05,8.11,16.62,8.11,16.62c2.03,2.9,3.54,4.81,3.54,4.81c3.06,3.97,7.6,6.9,7.6,6.9    s-5.63-1.1-9.92-5.29c0,0-0.03,5.16,0.74,8.22c3.79,3.11,9.41,7.36,16.95,10.83c10.08,4.64,20.97,8.67,20.97,8.67    s-18.14-3.02-23.19-4.64c-5.04-1.61-27.82-17.34-27.82-17.34l27.42,29.43l41.43,16.73l41.43-16.73l27.42-29.43l-33.27,25.2    l-35.58,9.68l32.71-15.61l4.29-13.22l-7.46,5.24l8.67-10.48l0.4-9.88c0,0-3.93,6.65-13.61,12.3c-0.75,0.44-1.53,0.87-2.34,1.31    l8.08-7.32l7.11-9.83l0,0c4.3-4.53,7.07-11.38,7.07-11.38s2.62,2.22,3.02,6.85c0.4,4.64-1.21,10.28-1.21,10.28    s8.47-12.5,2.42-19.15c-0.49-0.54-1.23-1.16-2.16-1.86c-13.37-11.12-31.44-17.71-46.99-26.17c-4.33,2.36-8.86,4.57-13.43,6.77    l-0.08,0.04c-2.24,1.08-4.5,2.17-6.74,3.26l-0.33,0.16L368.31,211.31z M396.23,251.88c-4.46-1.73-8.88-1.64-13.32,0.13    c-2.71,1.08-5.19,2.55-7.61,4.15c-1.02,0.68-2.13,1.25-2.97,2.17l0,0c-0.58,0.2-1.08,0.54-1.58,0.89    c4.62,4.26,10.78,6.86,17.56,6.86c7.57,0,14.39-3.25,19.13-8.43c-0.62-0.31-1.16-0.79-1.81-1.05c-1.34-0.86-2.69-1.7-4.11-2.41    C399.8,253.33,398.09,252.43,396.23,251.88z M369.93,221.91c1.65,0.95,3.29,1.91,4.96,2.83c3.14,1.73,6.34,3.31,9.93,3.99    c3.53,0.67,6.9,0.21,10.18-1.14c2.05-0.84,4.05-1.79,5.86-3.09c1.34-0.67,2.51-1.61,3.74-2.44c0.44-0.3,0.89-0.6,1.33-0.9    c-4.62-4.29-10.81-6.91-17.61-6.91C381.13,214.26,374.63,217.19,369.93,221.91z M402.19,227.66c-2.21,1.12-4.37,2.3-6.71,3.15    c-4.23,1.53-8.48,1.69-12.81,0.68c-3.77-0.88-7.2-2.57-10.54-4.47c-1.48-0.84-2.91-1.77-4.4-2.59c-3.34,4.36-5.32,9.81-5.32,15.73    c0,6.3,2.25,12.07,5.99,16.57c1.64-1.07,3.28-2.13,4.9-3.23c3.66-2.46,7.54-4.49,11.87-5.47c3.77-0.85,7.55-0.62,11.26,0.5    c0.67,0.2,1.34,0.41,2.01,0.62c1.08,0.48,2.17,0.97,3.25,1.45c2.13,0.95,4.09,2.22,6.14,3.33c0.57,0.39,1.14,0.77,1.76,1.06    c2.93-4.2,4.65-9.31,4.65-14.82c0-6.3-2.25-12.07-5.98-16.56c-0.41,0.3-0.78,0.68-1.27,0.86    C405.38,225.53,403.79,226.6,402.19,227.66z"/>
	</g>
	<g>
		<path class="st3" d="M263.74,327.34h9.29l-19.19,41.61h-11.19l2.65-27.21l-11.94,27.21h-11.19l3.1-41.61h9.68l-4.4,31.07    l13.82-31.07h9.49l-2.83,31.07L263.74,327.34z"/>
		<path class="st3" d="M284.45,368.95l0.58-7.52h-9.49l-3.45,7.52h-9.22l20.57-41.61h11.91l-1.46,41.61H284.45z M278.68,354.62h6.8    l1.31-17.6L278.68,354.62z"/>
		<path class="st3" d="M310.54,353.38l-4.17,15.57h-9.29l11.15-41.61h17.14c5.5,0,7.6,2.4,6.31,7.2l-3.12,11.64    c-1.03,3.84-3.39,6.15-7.09,6.93l3.09,15.83h-10.01l-2.37-15.57H310.54z M315.67,334.21l-3.36,12.56h5.04    c0.61,0,1.08-0.12,1.4-0.36c0.33-0.24,0.56-0.64,0.72-1.21l2.51-9.35c0.29-1.09-0.13-1.64-1.26-1.64H315.67z"/>
		<path class="st3" d="M341.22,353.38l-4.17,15.57h-9.29l11.15-41.61h17.14c5.5,0,7.6,2.4,6.31,7.2l-3.12,11.64    c-1.03,3.84-3.39,6.15-7.09,6.93l3.09,15.83h-10.01l-2.37-15.57H341.22z M346.36,334.21l-3.37,12.56h5.04    c0.61,0,1.08-0.12,1.41-0.36c0.33-0.24,0.56-0.64,0.72-1.21l2.51-9.35c0.29-1.09-0.13-1.64-1.26-1.64H346.36z"/>
		<path class="st3" d="M369.78,327.34h9.29l-11.15,41.61h-9.29L369.78,327.34z"/>
		<path class="st3" d="M393.2,327.34h8.77c5.5,0,7.6,2.4,6.31,7.2l-7.27,27.15c-1.3,4.84-4.69,7.26-10.19,7.26h-8.77    c-5.54,0-7.66-2.42-6.36-7.26l7.27-27.15C384.25,329.74,387.66,327.34,393.2,327.34z M391.99,360.45l6.59-24.6    c0.29-1.09-0.13-1.64-1.26-1.64h-3.14c-1.18,0-1.91,0.55-2.2,1.64l-6.59,24.6c-0.29,1.09,0.15,1.64,1.33,1.64h3.14    C390.98,362.08,391.7,361.54,391.99,360.45z"/>
		<path class="st3" d="M418.15,353.38l-4.17,15.57h-9.29l11.15-41.61h17.14c5.5,0,7.6,2.4,6.31,7.2l-3.12,11.64    c-1.03,3.84-3.39,6.15-7.09,6.93l3.09,15.83h-10.01l-2.37-15.57H418.15z M423.29,334.21l-3.36,12.56h5.04    c0.61,0,1.08-0.12,1.4-0.36c0.33-0.24,0.56-0.64,0.72-1.21l2.51-9.35c0.29-1.09-0.13-1.64-1.26-1.64H423.29z"/>
		<path class="st3" d="M464.12,327.34h9.22l-11.15,41.61h-9.22l4.59-17.14h-8.37l-4.59,17.14h-9.22l11.15-41.61h9.22l-4.71,17.6    h8.37L464.12,327.34z"/>
		<path class="st3" d="M487.28,327.34h8.77c5.5,0,7.6,2.4,6.31,7.2l-7.27,27.15c-1.3,4.84-4.69,7.26-10.19,7.26h-8.77    c-5.54,0-7.66-2.42-6.36-7.26l7.27-27.15C478.32,329.74,481.74,327.34,487.28,327.34z M486.06,360.45l6.59-24.6    c0.29-1.09-0.13-1.64-1.26-1.64h-3.14c-1.18,0-1.91,0.55-2.2,1.64l-6.59,24.6c-0.29,1.09,0.15,1.64,1.33,1.64h3.14    C485.06,362.08,485.77,361.54,486.06,360.45z"/>
		<path class="st3" d="M517.96,327.34h8.77c5.5,0,7.6,2.4,6.31,7.2l-7.27,27.15c-1.3,4.84-4.69,7.26-10.19,7.26h-8.77    c-5.54,0-7.66-2.42-6.36-7.26l7.27-27.15C509.01,329.74,512.42,327.34,517.96,327.34z M516.74,360.45l6.59-24.6    c0.29-1.09-0.13-1.64-1.26-1.64h-3.14c-1.18,0-1.91,0.55-2.2,1.64l-6.59,24.6c-0.29,1.09,0.15,1.64,1.33,1.64h3.14    C515.74,362.08,516.45,361.54,516.74,360.45z"/>
		<path class="st3" d="M541.05,327.34h17.34c5.54,0,7.67,2.4,6.38,7.2l-7.27,27.15c-1.3,4.84-4.72,7.26-10.25,7.26H529.9    L541.05,327.34z M548.35,360.9l6.83-25.51c0.29-1.09-0.15-1.64-1.33-1.64h-5.17l-7.71,28.78h5.17    C547.32,362.54,548.06,361.99,548.35,360.9z"/>
	</g>
	<g>
		<path class="st5" d="M239.77,382.66l-0.85,3.16h-3.52l-4.28,15.96h-4.3l4.28-15.96h-3.49l0.85-3.16H239.77z"/>
		<path class="st5" d="M261.13,398.62h6.13l-0.85,3.16h-10.43l5.12-19.12h10.19l-0.85,3.16h-5.89l-1.25,4.66h5.02l-0.85,3.16h-5.02    L261.13,398.62z"/>
		<path class="st5" d="M301.24,382.66h3.94l-5.12,19.12h-3.85l-1.11-11.45l-3.07,11.45h-3.91l5.12-19.12h3.88l1.06,11.42    L301.24,382.66z"/>
		<path class="st5" d="M335.69,382.66h3.94l-5.12,19.12h-3.85l-1.11-11.45l-3.07,11.45h-3.91l5.12-19.12h3.88l1.06,11.42    L335.69,382.66z"/>
		<path class="st5" d="M362.23,382.66h4.27l-5.12,19.12h-4.27L362.23,382.66z"/>
		<path class="st5" d="M391.71,397.87l0.93-3.46c0.07-0.26,0.06-0.45-0.03-0.56c-0.09-0.11-0.29-0.17-0.59-0.17h-2.65    c-2.36,0-3.25-1.12-2.65-3.37l1.17-4.36c0.59-2.2,2.15-3.31,4.67-3.31h3.67c2.52,0,3.49,1.1,2.9,3.31l-0.67,2.5h-4.3l0.51-1.89    c0.13-0.5-0.07-0.75-0.61-0.75h-1.02c-0.54,0-0.88,0.25-1.01,0.75l-0.9,3.37c-0.07,0.26-0.06,0.45,0.03,0.56    c0.09,0.11,0.29,0.17,0.59,0.17h2.58c1.28,0,2.13,0.28,2.54,0.83c0.41,0.55,0.48,1.37,0.19,2.45l-1.21,4.51    c-0.6,2.22-2.16,3.34-4.68,3.34h-3.64c-2.55,0-3.52-1.11-2.92-3.34l0.66-2.46h4.3l-0.51,1.89c-0.13,0.5,0.07,0.75,0.61,0.75h1.02    C391.24,398.62,391.57,398.37,391.71,397.87z"/>
		<path class="st5" d="M456.99,389.36h-4.33l0.81-3.01c0.13-0.5-0.06-0.75-0.58-0.75h-1.23c-0.54,0-0.88,0.25-1.01,0.75l-3.14,11.72    c-0.08,0.28-0.07,0.48,0.02,0.59c0.09,0.11,0.29,0.17,0.59,0.17h1.23c0.28,0,0.5-0.05,0.65-0.17c0.15-0.11,0.26-0.31,0.34-0.59    l0.78-2.92h4.33l-0.89,3.31c-0.59,2.2-2.16,3.31-4.7,3.31H446c-2.53,0-3.49-1.1-2.9-3.31l3.35-12.51c0.59-2.2,2.15-3.31,4.67-3.31    h3.85c2.54,0,3.52,1.1,2.93,3.31L456.99,389.36z"/>
		<path class="st5" d="M480.85,398.62h5.5l-0.85,3.16h-9.77l5.12-19.12h4.27L480.85,398.62z"/>
		<path class="st5" d="M519.15,382.66h4.3l-4.23,15.78c-0.6,2.22-2.17,3.34-4.71,3.34h-4.03c-2.52,0-3.49-1.11-2.89-3.34l4.23-15.78    h4.3l-4.07,15.21c-0.13,0.5,0.06,0.75,0.58,0.75h1.44c0.54,0,0.88-0.25,1.01-0.75L519.15,382.66z"/>
		<path class="st5" d="M545.97,382.66h7.94c2.54,0,3.52,1.1,2.93,3.31l-0.9,3.37c-0.4,1.48-1.1,2.42-2.1,2.8    c0.81,0.34,1.03,1.2,0.66,2.59l-1,3.73c-0.6,2.22-2.17,3.34-4.71,3.34h-7.94L545.97,382.66z M549.35,398.08l1-3.73    c0.07-0.26,0.06-0.45-0.03-0.56c-0.09-0.11-0.29-0.17-0.59-0.17h-2.47l-1.39,5.2h2.46C548.88,398.83,549.22,398.58,549.35,398.08z     M551.53,389.93l0.96-3.58c0.13-0.5-0.07-0.75-0.61-0.75h-2.47l-1.36,5.08h2.46C551.06,390.69,551.4,390.44,551.53,389.93z"/>
	</g>
</g>
</svg>