<svg xmlns="http://www.w3.org/2000/svg" xmlns:xlink="http://www.w3.org/1999/xlink" version="1.1" x="0px" y="0px" viewBox="0 0 770.04 618.89" style="enable-background:new 0 0 770.04 618.89;" xml:space="preserve">
<style type="text/css">
	.st0{fill-rule:evenodd;clip-rule:evenodd;fill:#D4632B;}
	.st1{fill-rule:evenodd;clip-rule:evenodd;fill:#031F53;}
	.st2{fill:#031F53;}
	.st3{fill:#D4632B;}
	.st4{fill:#FFFFFF;}
</style>

<g id="cabeza">
	<g>
		<path class="st1" d="M542.12,390.39c-11.08,10.82-25.61,13.65-25.61,13.65s11.71-7.55,19.62-17.81c0,0,3.91-4.93,9.16-12.41    c0,0,19.88-27.29,20.92-42.9c1.04-15.62-7.28-46.33-7.28-46.33s11.99,37.21,14.59,50.22    C576.12,347.82,542.12,390.39,542.12,390.39z M512.58,254.44l21.88,19.97c-19.87-8.96-41.96-18.94-51.74-38.87    C489.77,242.2,500.66,250.14,512.58,254.44z M232.61,66.48l5.22,11.07l-15.41,12.42l12.97-7.31l5.01,0.36l8.57,18.18l-15.4,12.42    l12.97-7.3l1.47-1.02l2.96,0.14l0,0l10.22,21.68l-15.4,12.42l12.97-7.3l1.47-1.03l3.39,1.06l0,0l8.28,17.57l0,0l-15.4,12.42    l12.97-7.3l1.51-1.06l3.01,0.38l4.97,10.54c-6.75,12.5-13.68,25.94-21.5,40.45l-2.99-6.35l1.64-6.07l-4.42,0.16l-11.09-23.51    l1.15-4.97l-3.76-0.58l-8.19-17.36l1.9-4.84l-4.87-1.47l-9.59-20.35l0.92-4.45l-3.26-0.52l-7.97-16.89l1.49-3.11l-3.39-0.92    l-5.62-11.92c-0.37-0.78-1.46-3.49,1.01-4.82c2.46-1.33,14.06-7.39,19.19-9.96C224.75,64.8,231.22,64.18,232.61,66.48z     M581.37,82.13l-5.22,11.07l-19.38-3.98l13.89,5.36l2.91,4.09l0,0L565,116.86l-19.38-3.98l13.89,5.35l1.72,0.48l1.78,2.38l-0.01,0    l-10.22,21.68l-19.38-3.98l13.89,5.35l1.73,0.48l1.34,3.29l0,0l-8.28,17.57l0,0l-19.38-3.98l13.89,5.36l1.78,0.5l1.62,2.57    l-2.48,5.27l-8.39,17.81l-4.42-0.16l1.64,6.07l-2.99,6.35l-10.74-20.22l-0.01,0l-10.75-20.23h-0.01l5.17-10.96l4.57-2.28    l-1.94-3.27l8.18-17.36l4.94-1.61l-1.97-4.69l9.6-20.35l4.02-2.12l-1.68-2.85l7.96-16.89l3.35-0.84l-1.45-3.19l5.62-11.92    c0.37-0.78,1.77-3.34,4.37-2.29c2.59,1.05,14.64,6.15,19.88,8.47C577.68,75,582.27,79.6,581.37,82.13z M336.43,292.58    L336.43,292.58c-20.26,9.94-40.19,20.42-57.71,33.22l0,0c-3.3,2.41-6.52,4.91-9.63,7.5c-2.41,1.78-4.32,3.4-5.59,4.79    c-9.55,10.5-5.08,26.65-0.17,37.61v0.01c0,0-10.73-13.68-9.94-27.47c0.78-13.79,27.32-32.01,34.35-37.22    c7.03-5.21,56.47-38,56.47-38s-9.89-1.3-17.7,2.86c-7.81,4.17-14.05,3.91-14.05,3.91s8.59-3.91,14.58-8.59    c5.99-4.68,34.87-9.37,42.42-13.53c7.55-4.16,20.94-10.67,20.94-10.67s8.46,4.84,16.72,9.91c3.38,2.13,12.91,5.57,21.54,8.46    c12.53,11.75,85.64,55.83,85.64,55.83l-53.93-43.9l-44.71-36.26c-7.95-8.54-20.19-19.68-25.27-20.06    c-6.89-0.52-11.58,3.91-11.58,3.91s4.42-8.33,11.58-8.33c7.16,0,9.24,2.08,9.24,2.08s-2.86-4.23-4.68-5.6    c-1.82-1.36-4.56-2.28-4.56-2.28V131.7l-9.17-2.86c0,0,5.8-4.35,13.21-4.66c1.61,0.06,3.29,0.15,5.05,0.24    c4.21,0.45,9.21,1.39,13.09,2.21c12.88,3.38,24.12,9.35,24.12,9.35s-3.64-7.03-17.43-17.44c-13.8-10.41-28.87-12.75-28.87-12.75    s-8.61,1.3-18.24,5.46c-9.63,4.16-30.45,16.92-30.45,16.92s10.67-14.05,22.12-22.9c11.45-8.85,26.57-10.67,26.57-10.67    s4.92-0.52,17.68,3.38c12.7,3.89,43.3,21.99,43.54,22.13c-21-28.5-61.21-48.52-61.21-48.52    c-71.96,35.55-87.47,82.15-127.08,154.32c-15.02,20.04-15.53,22.91-14.5,31.63c18.28,0.75,37.36-12.05,47.89-21.99    c-11.22,22.88-38.68,32.64-60.37,42.81l-8.61,6.23c0,0-8.33,30.71-7.29,46.33c1.04,15.62,20.93,42.9,20.93,42.9    c5.25,7.48,9.15,12.41,9.15,12.41c7.91,10.26,19.62,17.81,19.62,17.81s-14.53-2.83-25.61-13.65c0,0-0.08,13.32,1.91,21.23    c9.78,8.02,24.3,19,43.76,27.96c26.02,11.97,54.13,22.38,54.13,22.38s-46.84-7.81-59.86-11.98    c-13.01-4.16-71.83-44.76-71.83-44.76l70.79,75.99l106.96,43.2l106.96-43.2l70.79-75.99l-85.89,65.06l-91.87,24.98l84.44-40.29    l11.07-34.14l-19.26,13.53l22.38-27.07l1.04-25.5c0,0-10.15,17.18-35.13,31.75c-1.94,1.13-3.96,2.26-6.05,3.38l20.86-18.9    l18.37-25.37l0,0c11.1-11.69,18.25-29.37,18.25-29.37s6.76,5.72,7.81,17.69c1.04,11.98-3.12,26.55-3.12,26.55    s21.86-32.27,6.24-49.45c-1.27-1.39-3.17-3.01-5.59-4.79c-34.53-28.7-81.18-45.73-121.3-67.56    c-11.18,6.08-22.87,11.79-34.66,17.49l-0.2,0.1c-5.79,2.8-11.61,5.59-17.4,8.42l-0.85,0.42L336.43,292.58z M408.51,397.33    c-11.51-4.45-22.93-4.25-34.39,0.33c-6.99,2.79-13.41,6.59-19.64,10.72c-2.63,1.75-5.49,3.23-7.67,5.6l0,0    c-1.5,0.52-2.79,1.4-4.07,2.3c11.92,10.99,27.84,17.71,45.34,17.71c19.56,0,37.15-8.39,49.38-21.77c-1.61-0.8-2.99-2.03-4.67-2.7    c-3.45-2.23-6.95-4.38-10.62-6.22C417.74,401.06,413.32,398.73,408.51,397.33z M340.62,319.95c4.26,2.46,8.5,4.94,12.8,7.32    c8.11,4.48,16.37,8.55,25.63,10.3c9.12,1.72,17.81,0.53,26.27-2.93c5.29-2.17,10.46-4.62,15.13-7.99c3.46-1.74,6.48-4.15,9.67-6.3    c1.15-0.78,2.29-1.55,3.44-2.33c-11.93-11.07-27.91-17.83-45.47-17.83C369.53,300.19,352.74,307.75,340.62,319.95z M423.91,334.8    c-5.69,2.89-11.27,5.95-17.33,8.14c-10.91,3.95-21.88,4.36-33.06,1.75c-9.73-2.27-18.59-6.63-27.21-11.54    c-3.82-2.18-7.51-4.58-11.37-6.68c-8.62,11.26-13.74,25.34-13.74,40.61c0,16.26,5.81,31.17,15.46,42.77    c4.23-2.76,8.47-5.51,12.66-8.33c9.46-6.36,19.48-11.6,30.64-14.13c9.73-2.2,19.49-1.61,29.06,1.29c1.73,0.52,3.45,1.06,5.18,1.59    c2.8,1.25,5.59,2.49,8.39,3.74c5.51,2.45,10.57,5.72,15.84,8.59c1.46,1.01,2.94,1.98,4.54,2.73    c7.57-10.84,12.01-24.03,12.01-38.25c0-16.26-5.8-31.17-15.45-42.76c-1.07,0.78-2.01,1.76-3.27,2.21    C432.14,329.29,428.03,332.05,423.91,334.8z"/>
	</g>
</g>
</svg>